<svg width="120" height="120" viewBox="0 0 120 120" fill="none" xmlns="http://www.w3.org/2000/svg">
<g id="Client Logo [Desktop]">
<g id="Group">
<path id="Vector" d="M48.1488 53.2492C45.4044 53.7831 43.5967 56.3121 43.5967 59.6091C43.5967 63.5805 46.1256 66.2031 49.7411 65.9877C51.4271 65.894 52.3637 65.5006 53.4034 64.4703C54.6304 63.2526 55.2673 61.5386 55.258 59.4686C55.2486 57.9137 54.902 56.6867 54.1527 55.5065C53.7593 54.8884 52.8789 54.0735 52.2513 53.7269C51.1742 53.1462 49.6006 52.9589 48.1488 53.2492ZM50.7901 55.4972C52.1577 56.1528 52.9913 58.279 52.7103 60.4052C52.5417 61.6135 52.2232 62.3722 51.5769 63.0185C50.9587 63.6554 50.3125 63.8989 49.329 63.8896C48.5141 63.8896 48.0739 63.7116 47.4369 63.159C46.5565 62.3816 46.1163 61.192 46.1069 59.5622C46.0975 58.4757 46.2474 57.8294 46.697 56.949C47.465 55.4316 49.3009 54.776 50.7901 55.4972Z" fill="#575B63"/>
<path id="Vector_2" d="M59.8565 53.4367C59.6036 53.4554 59.2477 53.5023 59.0791 53.5304L58.77 53.5772L58.7981 58.9348C58.8262 64.9294 58.7981 64.6484 59.51 65.1355L59.8565 65.3696L59.8846 62.7564L59.9034 60.1431L60.1937 60.0869C60.3623 60.0588 61.0835 60.0307 61.8141 60.0307C64.9144 60.0307 66.1977 59.6186 66.872 58.4384C67.1437 57.9514 67.1624 57.8764 67.1624 56.8929C67.1624 55.9563 67.1437 55.8158 66.9001 55.3287C66.488 54.4858 65.7481 53.9519 64.5117 53.5959C64.1183 53.4835 63.5001 53.4461 62.1513 53.4273C61.1491 53.418 60.1188 53.418 59.8565 53.4367ZM64.7739 54.823C65.8511 55.2351 66.3569 56.3778 65.9073 57.3613C65.3359 58.6164 63.6687 59.2627 61.6268 59.0098C61.121 58.9536 60.5309 58.8599 60.3061 58.7943L59.9034 58.7007L59.9221 56.715L59.9502 54.7387L60.3249 54.6731C60.5309 54.645 61.5238 54.6263 62.526 54.6356C63.9872 54.6544 64.4367 54.6918 64.7739 54.823Z" fill="#575B63"/>
<path id="Vector_3" d="M11.535 53.961C11.4226 54.9164 11.357 60.1054 11.4319 62.8592L11.4975 65.6504H15.6562H19.815V65.0041C19.815 64.6575 19.8431 64.1705 19.8712 63.927L19.9367 63.4961H16.7896H13.6331L13.6799 62.2035C13.708 61.501 13.7455 59.2718 13.7736 57.258L13.8204 53.5863L13.605 53.5301C13.4926 53.502 12.9961 53.4739 12.4997 53.4739H11.6005L11.535 53.961Z" fill="#575B63"/>
<path id="Vector_4" d="M20.9108 57.0051C20.8733 58.944 20.8452 61.679 20.8452 63.0933V65.6504H21.9598H23.0651L23.1306 65.2945C23.2056 64.8355 23.2056 55.4222 23.1306 54.3357L23.0651 53.4739H22.016H20.967L20.9108 57.0051Z" fill="#575B63"/>
<path id="Vector_5" d="M24.0298 58.9814C24.0298 62.0162 24.0579 64.7606 24.086 65.079L24.1515 65.6504H25.2006H26.2496L26.3152 65.2945C26.3433 65.1071 26.3714 64.1424 26.3714 63.1495V61.3512L26.8678 61.3043C27.1301 61.2762 27.9075 61.2294 28.5819 61.2013C30.118 61.1451 30.6706 61.0421 31.4012 60.6768C32.3941 60.1991 32.8437 59.4217 33.0123 57.9324C33.2839 55.5814 32.4596 54.3169 30.2585 53.6987C29.8089 53.5676 29.1533 53.5301 26.8678 53.502L24.0298 53.4552V58.9814ZM29.7527 55.7968C30.2398 56.0966 30.4365 56.5555 30.4739 57.4828C30.5114 58.2321 30.502 58.279 30.2585 58.5319C29.6871 59.1219 28.6662 59.3655 27.1769 59.2343L26.3714 59.1688V57.4079V55.6376L26.6337 55.6001C26.7742 55.572 27.4579 55.5627 28.151 55.572C29.2844 55.5814 29.453 55.6001 29.7527 55.7968Z" fill="#575B63"/>
<path id="Vector_6" d="M34.0518 59.5622V65.6504H35.157H36.2716L36.3372 63.5242C36.3746 62.3534 36.4215 61.3793 36.4496 61.3512C36.4683 61.3324 37.2551 61.2762 38.2011 61.2294C40.9549 61.117 41.826 60.8173 42.4535 59.7589C42.8375 59.1126 42.9874 58.4382 42.9968 57.2674C42.9968 55.9373 42.8094 55.3847 42.1257 54.6916C41.1328 53.7081 40.065 53.4739 36.4683 53.4739H34.0518V59.5622ZM39.578 55.7875C40.2711 56.0966 40.4584 56.3776 40.4959 57.1362C40.5521 58.1385 40.3273 58.5693 39.5499 58.9721C39.0066 59.2437 38.1543 59.3374 37.1146 59.2343L36.3934 59.1688V57.4079C36.3934 55.3285 36.2154 55.5346 37.9857 55.572C38.9411 55.5908 39.2314 55.6282 39.578 55.7875Z" fill="#575B63"/>
<path id="Vector_7" d="M92.0495 53.5395C90.3635 53.5582 89.0335 53.6051 89.0522 53.6519C89.071 53.6987 89.2583 53.9329 89.4831 54.1671L89.8765 54.5979H92.5459C94.5504 54.5979 95.2154 54.626 95.2154 54.7103C95.2154 54.9539 94.3818 56.2558 91.1503 61.0327C89.5299 63.4399 88.2842 65.4069 88.2842 65.5661C88.2842 65.6129 90.2137 65.6504 92.6021 65.6504H96.9107L96.5173 65.1821C96.2551 64.873 96.0115 64.6856 95.7867 64.6201C95.5994 64.5732 94.3256 64.5264 92.9487 64.5264C90.8693 64.5264 90.4385 64.5077 90.4385 64.3953C90.4385 64.2079 91.7404 62.0911 92.8082 60.5456C95.871 56.0966 97.07 54.242 97.3041 53.6332C97.3603 53.4833 97.276 53.4739 96.2176 53.4927C95.59 53.5114 93.7167 53.5301 92.0495 53.5395Z" fill="#575B63"/>
<path id="Vector_8" d="M67.912 55.7033C67.8745 56.8179 67.8651 58.8973 67.8839 60.3116C67.9307 62.6907 67.9494 62.9342 68.1555 63.543C68.399 64.2643 68.9517 64.9199 69.5698 65.2103C70.5065 65.6505 71.874 65.8004 74.0845 65.6973L75.555 65.6318L75.3302 65.3321C75.2085 65.1728 74.8807 64.9199 74.609 64.7701L74.1032 64.4984L72.3142 64.4891C70.7032 64.4797 70.4971 64.461 70.1599 64.283C69.7291 64.0582 69.2982 63.5056 69.1577 62.9717C69.0828 62.7001 68.9704 57.0802 68.9891 54.5512C68.9891 54.495 68.7643 54.2796 68.4833 54.0642L67.9775 53.6708L67.912 55.7033Z" fill="#575B63"/>
<path id="Vector_9" d="M81.1937 54.9913C80.8284 55.7219 80.1259 57.258 79.6388 58.3914C79.1518 59.5247 78.5149 60.939 78.2339 61.5385C77.6157 62.8311 76.9038 64.4796 76.6603 65.154L76.4917 65.6504H77.1474H77.803L77.9716 65.2476C78.0653 65.0322 78.2526 64.6201 78.3837 64.3391C78.5149 64.0581 78.7209 63.5898 78.8521 63.2994L79.0769 62.7749L80.3694 62.7187C82.2615 62.625 83.7133 62.6437 84.2565 62.7561C84.8466 62.8779 85.1838 63.2057 85.418 63.8801C85.521 64.1611 85.7177 64.6669 85.8769 65.0135L86.1579 65.6504H86.7012C87.0103 65.6504 87.2538 65.6223 87.2538 65.5942C87.2538 65.5567 86.5982 64.0768 85.7926 62.2878C84.9871 60.5082 83.8538 57.9886 83.273 56.7054C82.7017 55.4128 82.1397 54.2045 82.0367 54.0078L81.8587 53.6425L81.1937 54.9913ZM82.224 56.9114C82.6361 57.5952 83.9287 60.5175 84.2003 61.4074L84.2659 61.6228L82.5987 61.6134C81.6807 61.6041 80.6504 61.576 80.3039 61.5385L79.6763 61.4823L80.716 59.2343C81.278 57.998 81.7838 56.8927 81.8306 56.771C81.9336 56.49 81.9711 56.5087 82.224 56.9114Z" fill="#575B63"/>
<path id="Vector_10" d="M103.149 53.9234C103.121 54.0077 102.849 54.6259 102.54 55.3003C102.081 56.2838 99.2335 62.5687 98.1095 65.0696L97.8379 65.6597L98.4654 65.6316L99.0836 65.6035L99.6831 64.2453C100.02 63.496 100.32 62.8591 100.357 62.8216C100.386 62.7842 101.613 62.7467 103.074 62.7467C106.24 62.7373 106.165 62.7186 106.577 63.7395C106.717 64.0955 106.97 64.6668 107.129 65.0134L107.429 65.6503H108.01H108.6L108.431 65.1539C108.141 64.3203 107.635 63.1494 106.783 61.3417C106.333 60.3863 105.593 58.7378 105.134 57.67C104.282 55.6656 103.43 53.9047 103.28 53.8111C103.233 53.783 103.177 53.8298 103.149 53.9234ZM103.954 57.8761C104.497 58.972 105.518 61.3792 105.518 61.5852C105.518 61.6508 101.032 61.5665 100.957 61.5009C100.938 61.4822 101.097 61.1169 101.303 60.6954C101.51 60.2739 101.678 59.9086 101.678 59.8899C101.678 59.8431 101.978 59.1968 102.69 57.67C102.943 57.1174 103.13 56.6397 103.102 56.6023C103.064 56.5648 103.102 56.5554 103.177 56.5742C103.252 56.6023 103.598 57.183 103.954 57.8761Z" fill="#575B63"/>
</g>
</g>
</svg>
