<svg width="92" height="93" viewBox="0 0 92 93" fill="none" xmlns="http://www.w3.org/2000/svg">
<g clip-path="url(#clip0_242_190)">
<mask id="mask0_242_190" style="mask-type:luminance" maskUnits="userSpaceOnUse" x="0" y="0" width="92" height="93">
<path d="M92 0.5H0V92.5H92V0.5Z" fill="white"/>
</mask>
<g mask="url(#mask0_242_190)">
<path fill-rule="evenodd" clip-rule="evenodd" d="M0 46.5L3.50952e-06 0.5H46H92V46.5C66.5988 46.5 46.006 25.9112 46 0.511006C45.994 25.9112 25.4014 46.5 0 46.5ZM46 92.5C46 67.0947 66.5951 46.5 92 46.5V92.5H46ZM46 92.5C46 67.0947 25.4051 46.5 0 46.5V92.5H46Z" fill="url(#paint0_linear_242_190)"/>
</g>
</g>
<defs>
<linearGradient id="paint0_linear_242_190" x1="9.43" y1="7.86" x2="46" y2="92.5" gradientUnits="userSpaceOnUse">
<stop stop-color="#253EA7"/>
<stop offset="1" stop-color="#C2D6FF"/>
</linearGradient>
<clipPath id="clip0_242_190">
<rect width="92" height="92" fill="white" transform="translate(0 0.5)"/>
</clipPath>
</defs>
</svg>
