<svg width="50" height="50" viewBox="0 0 50 50" fill="none" xmlns="http://www.w3.org/2000/svg">
<g id="Frame" clip-path="url(#clip0_251_1400)">
<g id="Clip path group">
<mask id="mask0_251_1400" style="mask-type:luminance" maskUnits="userSpaceOnUse" x="0" y="0" width="50" height="50">
<g id="clip0_105_666">
<path id="Vector" d="M50 0H0V50H50V0Z" fill="white"/>
</g>
</mask>
<g mask="url(#mask0_251_1400)">
<g id="Group">
<path id="Vector_2" fill-rule="evenodd" clip-rule="evenodd" d="M25 5.5C25 2.46244 22.5376 0 19.5 0H5.5C2.46244 0 0 2.46243 0 5.5V19.6798C0 22.7174 2.46244 25.1798 5.5 25.1798H19.5C22.5376 25.1798 25 27.6423 25 30.6798V44.5C25 47.5375 27.4625 50 30.5 50H44.5C47.5375 50 50 47.5375 50 44.5V30.32C50 27.2825 47.5375 24.8201 44.5 24.8201H30.5C27.4625 24.8201 25 22.3577 25 19.3201V5.5Z" fill="url(#paint0_linear_251_1400)"/>
</g>
</g>
</g>
</g>
<defs>
<linearGradient id="paint0_linear_251_1400" x1="5.125" y1="4" x2="25" y2="50" gradientUnits="userSpaceOnUse">
<stop stop-color="#253EA7"/>
<stop offset="1" stop-color="#C2D6FF"/>
</linearGradient>
<clipPath id="clip0_251_1400">
<rect width="50" height="50" fill="white"/>
</clipPath>
</defs>
</svg>
